<mxfile host="Electron" agent="Mozilla/5.0 (Macintosh; Intel Mac OS X 10_15_7) AppleWebKit/537.36 (KHTML, like Gecko) draw.io/24.7.8 Chrome/128.0.6613.36 Electron/32.0.1 Safari/537.36" version="24.7.8">
  <diagram name="Page-1" id="-kM3Qjv1l9XRCAiNeTbL">
    <mxGraphModel dx="1529" dy="798" grid="0" gridSize="10" guides="1" tooltips="1" connect="1" arrows="1" fold="1" page="0" pageScale="1" pageWidth="850" pageHeight="1100" math="0" shadow="0">
      <root>
        <mxCell id="0" />
        <mxCell id="1" parent="0" />
        <mxCell id="vapvYva23cW2sGHKlgnp-1" value="" style="rounded=0;whiteSpace=wrap;html=1;fillColor=#dae8fc;strokeColor=#6c8ebf;dashed=1;" vertex="1" parent="1">
          <mxGeometry x="400" y="130" width="430" height="230" as="geometry" />
        </mxCell>
        <mxCell id="vapvYva23cW2sGHKlgnp-2" value="App Service Plan" style="image;aspect=fixed;html=1;points=[];align=center;fontSize=12;image=img/lib/azure2/app_services/App_Service_Plans.svg;labelBackgroundColor=none;" vertex="1" parent="1">
          <mxGeometry x="480" y="193" width="68" height="68" as="geometry" />
        </mxCell>
        <mxCell id="vapvYva23cW2sGHKlgnp-3" value="App Services" style="image;sketch=0;aspect=fixed;html=1;points=[];align=center;fontSize=12;image=img/lib/mscae/App_Services.svg;labelBackgroundColor=none;" vertex="1" parent="1">
          <mxGeometry x="669" y="200" width="61" height="61" as="geometry" />
        </mxCell>
        <mxCell id="vapvYva23cW2sGHKlgnp-4" style="edgeStyle=orthogonalEdgeStyle;rounded=0;orthogonalLoop=1;jettySize=auto;html=1;entryX=0.016;entryY=0.443;entryDx=0;entryDy=0;entryPerimeter=0;" edge="1" parent="1" source="vapvYva23cW2sGHKlgnp-2" target="vapvYva23cW2sGHKlgnp-3">
          <mxGeometry relative="1" as="geometry" />
        </mxCell>
        <mxCell id="vapvYva23cW2sGHKlgnp-5" value="Region 1 (East US 2)" style="text;html=1;align=center;verticalAlign=middle;resizable=0;points=[];autosize=1;strokeColor=none;fillColor=none;" vertex="1" parent="1">
          <mxGeometry x="542" y="130" width="140" height="30" as="geometry" />
        </mxCell>
        <mxCell id="vapvYva23cW2sGHKlgnp-7" value="" style="rounded=0;whiteSpace=wrap;html=1;fillColor=#dae8fc;strokeColor=#6c8ebf;dashed=1;" vertex="1" parent="1">
          <mxGeometry x="400" y="460" width="430" height="230" as="geometry" />
        </mxCell>
        <mxCell id="vapvYva23cW2sGHKlgnp-8" value="App Service Plan" style="image;aspect=fixed;html=1;points=[];align=center;fontSize=12;image=img/lib/azure2/app_services/App_Service_Plans.svg;labelBackgroundColor=none;" vertex="1" parent="1">
          <mxGeometry x="480" y="523" width="68" height="68" as="geometry" />
        </mxCell>
        <mxCell id="vapvYva23cW2sGHKlgnp-9" value="App Services" style="image;sketch=0;aspect=fixed;html=1;points=[];align=center;fontSize=12;image=img/lib/mscae/App_Services.svg;labelBackgroundColor=none;" vertex="1" parent="1">
          <mxGeometry x="669" y="530" width="61" height="61" as="geometry" />
        </mxCell>
        <mxCell id="vapvYva23cW2sGHKlgnp-10" style="edgeStyle=orthogonalEdgeStyle;rounded=0;orthogonalLoop=1;jettySize=auto;html=1;entryX=0.016;entryY=0.443;entryDx=0;entryDy=0;entryPerimeter=0;" edge="1" parent="1" source="vapvYva23cW2sGHKlgnp-8" target="vapvYva23cW2sGHKlgnp-9">
          <mxGeometry relative="1" as="geometry" />
        </mxCell>
        <mxCell id="vapvYva23cW2sGHKlgnp-11" value="Region 2 (West US)" style="text;html=1;align=center;verticalAlign=middle;resizable=0;points=[];autosize=1;strokeColor=none;fillColor=none;" vertex="1" parent="1">
          <mxGeometry x="547" y="460" width="130" height="30" as="geometry" />
        </mxCell>
        <mxCell id="vapvYva23cW2sGHKlgnp-13" style="edgeStyle=orthogonalEdgeStyle;rounded=0;orthogonalLoop=1;jettySize=auto;html=1;entryX=0;entryY=0.5;entryDx=0;entryDy=0;fontColor=#4b7de2;fillColor=#dae8fc;strokeColor=#6c8ebf;strokeWidth=2;" edge="1" parent="1" source="vapvYva23cW2sGHKlgnp-12" target="vapvYva23cW2sGHKlgnp-1">
          <mxGeometry relative="1" as="geometry" />
        </mxCell>
        <mxCell id="vapvYva23cW2sGHKlgnp-14" style="edgeStyle=orthogonalEdgeStyle;rounded=0;orthogonalLoop=1;jettySize=auto;html=1;entryX=0;entryY=0.5;entryDx=0;entryDy=0;fontColor=#4b7de2;fillColor=#dae8fc;strokeColor=#6c8ebf;strokeWidth=2;dashed=1;" edge="1" parent="1" source="vapvYva23cW2sGHKlgnp-12" target="vapvYva23cW2sGHKlgnp-7">
          <mxGeometry relative="1" as="geometry" />
        </mxCell>
        <mxCell id="vapvYva23cW2sGHKlgnp-12" value="Azure&lt;div&gt;Front Door&lt;/div&gt;" style="image;aspect=fixed;html=1;points=[];align=center;fontSize=12;image=img/lib/azure2/networking/Front_Doors.svg;" vertex="1" parent="1">
          <mxGeometry x="160" y="362.35" width="88" height="77.65" as="geometry" />
        </mxCell>
        <mxCell id="vapvYva23cW2sGHKlgnp-15" value="Internet" style="outlineConnect=0;dashed=0;verticalLabelPosition=bottom;verticalAlign=top;align=center;html=1;shape=mxgraph.aws3.internet_3;fillColor=#D2D3D3;gradientColor=none;" vertex="1" parent="1">
          <mxGeometry x="-10" y="376.18" width="79.5" height="54" as="geometry" />
        </mxCell>
        <mxCell id="vapvYva23cW2sGHKlgnp-16" value="" style="sketch=0;outlineConnect=0;fontColor=#232F3E;gradientColor=none;fillColor=#232F3D;strokeColor=none;dashed=0;verticalLabelPosition=bottom;verticalAlign=top;align=center;html=1;fontSize=12;fontStyle=0;aspect=fixed;pointerEvents=1;shape=mxgraph.aws4.users;" vertex="1" parent="1">
          <mxGeometry x="-120" y="390.36" width="47.64" height="47.64" as="geometry" />
        </mxCell>
        <mxCell id="vapvYva23cW2sGHKlgnp-17" style="edgeStyle=orthogonalEdgeStyle;rounded=0;orthogonalLoop=1;jettySize=auto;html=1;entryX=0;entryY=0.7;entryDx=0;entryDy=0;entryPerimeter=0;" edge="1" parent="1" source="vapvYva23cW2sGHKlgnp-16" target="vapvYva23cW2sGHKlgnp-15">
          <mxGeometry relative="1" as="geometry" />
        </mxCell>
        <mxCell id="vapvYva23cW2sGHKlgnp-19" style="edgeStyle=orthogonalEdgeStyle;rounded=0;orthogonalLoop=1;jettySize=auto;html=1;entryX=0;entryY=0.174;entryDx=0;entryDy=0;entryPerimeter=0;exitX=0.38;exitY=0.02;exitDx=0;exitDy=0;exitPerimeter=0;fillColor=#f8cecc;strokeColor=#b85450;" edge="1" parent="1" source="vapvYva23cW2sGHKlgnp-15" target="vapvYva23cW2sGHKlgnp-1">
          <mxGeometry relative="1" as="geometry">
            <Array as="points">
              <mxPoint x="20" y="170" />
            </Array>
          </mxGeometry>
        </mxCell>
        <mxCell id="vapvYva23cW2sGHKlgnp-20" style="edgeStyle=orthogonalEdgeStyle;rounded=0;orthogonalLoop=1;jettySize=auto;html=1;entryX=-0.001;entryY=0.874;entryDx=0;entryDy=0;entryPerimeter=0;exitX=0.5;exitY=1;exitDx=0;exitDy=0;exitPerimeter=0;fillColor=#f8cecc;strokeColor=#b85450;" edge="1" parent="1" source="vapvYva23cW2sGHKlgnp-15" target="vapvYva23cW2sGHKlgnp-7">
          <mxGeometry relative="1" as="geometry" />
        </mxCell>
        <mxCell id="vapvYva23cW2sGHKlgnp-21" value="" style="shape=mxgraph.mockup.markup.redX;fillColor=#ff0000;html=1;shadow=0;whiteSpace=wrap;strokeColor=none;" vertex="1" parent="1">
          <mxGeometry x="290" y="150" width="30" height="40" as="geometry" />
        </mxCell>
        <mxCell id="vapvYva23cW2sGHKlgnp-23" value="" style="shape=mxgraph.mockup.markup.redX;fillColor=#ff0000;html=1;shadow=0;whiteSpace=wrap;strokeColor=none;" vertex="1" parent="1">
          <mxGeometry x="290" y="639" width="30" height="40" as="geometry" />
        </mxCell>
        <mxCell id="vapvYva23cW2sGHKlgnp-25" style="edgeStyle=orthogonalEdgeStyle;rounded=0;orthogonalLoop=1;jettySize=auto;html=1;entryX=0.027;entryY=0.522;entryDx=0;entryDy=0;entryPerimeter=0;fillColor=#dae8fc;strokeColor=#6c8ebf;strokeWidth=2;" edge="1" parent="1" source="vapvYva23cW2sGHKlgnp-15" target="vapvYva23cW2sGHKlgnp-12">
          <mxGeometry relative="1" as="geometry" />
        </mxCell>
      </root>
    </mxGraphModel>
  </diagram>
</mxfile>
